<?xml version="1.0" encoding="UTF-8" standalone="no"?>
<!-- Created with Inkscape (http://www.inkscape.org/) -->

<svg
   version="1.1"
   id="svg1"
   width="2730.6667"
   height="2730.6667"
   viewBox="0 0 2730.6667 2730.6667"
   sodipodi:docname="LOGO_EstúdioOdisse_Branco.svg"
   inkscape:version="1.4.4 (dcaf3e7, 2026-05-05)"
   inkscape:export-filename="C:\Users\User\Desktop\Logo_Mão.png"
   inkscape:export-xdpi="96"
   inkscape:export-ydpi="96"
   xmlns:inkscape="http://www.inkscape.org/namespaces/inkscape"
   xmlns:sodipodi="http://sodipodi.sourceforge.net/DTD/sodipodi-0.dtd"
   xmlns="http://www.w3.org/2000/svg"
   xmlns:svg="http://www.w3.org/2000/svg">
  <defs
     id="defs1" />
  <sodipodi:namedview
     id="namedview1"
     pagecolor="#505050"
     bordercolor="#eeeeee"
     borderopacity="1"
     inkscape:showpageshadow="0"
     inkscape:pageopacity="0"
     inkscape:pagecheckerboard="0"
     inkscape:deskcolor="#505050"
     inkscape:zoom="0.21363394"
     inkscape:cx="704.47608"
     inkscape:cy="1172.5665"
     inkscape:window-width="1920"
     inkscape:window-height="1009"
     inkscape:window-x="-8"
     inkscape:window-y="-8"
     inkscape:window-maximized="1"
     inkscape:current-layer="g1" />
  <g
     inkscape:groupmode="layer"
     inkscape:label="Image"
     id="g1">
    <path
       style="display:inline;fill:#ffffff;stroke:none;stroke-width:0;stroke-dasharray:none;stroke-opacity:1;fill-opacity:1"
       d="m 1292.6123,2217.4055 c -61.5594,-8.2629 -122.7352,-39.1122 -168.6877,-85.0647 -12.3817,-12.3818 -30.236,-34.1479 -30.236,-36.8606 0,-0.8376 3.0197,-8.7432 6.7104,-17.5681 4.8152,-11.5132 57.7832,-141.8216 39.1648,-259.2663 -1.0712,-6.7565 -1.7716,-12.4605 -1.5566,-12.6756 0.2151,-0.215 3.771,4.0832 7.9022,9.5516 23.9854,31.7496 56.4268,61.656 89.6799,82.6722 14.9652,9.458 48.7031,25.9698 66.414,32.5036 32.7529,12.0832 66.1705,18.3052 104.2698,19.4139 21.047,0.6124 47.5591,0.141 47.5591,1.6454 0,1.0342 -9.9114,39.8135 -19.6336,78.6963 -15.438,61.7419 -41.43,170.252 -43.9818,182.5037 -0.8238,3.9553 -22.5076,5.0698 -29.1064,5.8624 -12.4664,1.4976 -53.0482,0.66 -68.4981,-1.4138 z m 97.6045,-4.4486 c 0,-2.8066 59.9374,-248.9048 63.6154,-261.2 0.4786,-1.6001 4.0038,-2.5969 13.645,-3.8582 31.698,-4.1471 58.6977,-11.3699 90.4407,-24.1941 17.889,-7.227 49.3641,-22.2758 53.5909,-25.6226 2.4011,-1.9011 2.2597,-1.6463 -7.7138,13.8992 -44.7806,69.7985 -75.6385,147.7491 -86.6078,218.7811 -1.5764,10.2081 -3.1199,19.79 -3.43,21.2931 -1.4987,7.2647 -49.853,36.9807 -78.4462,48.2089 -19.9312,7.8267 -45.0942,14.9093 -45.0942,12.6926 z m 6.1492,-282.5275 c -37.4537,-3.2789 -77.6297,-13.5482 -111.1515,-28.4109 -56.7464,-25.16 -107.277,-69.8017 -142.663,-126.037 -30.2136,-48.015 -161.4573,-356.9371 -198.73879,-435.9916 l -3.39686,-7.2029 3.4399,-5.7786 c 1.89194,-3.1784 17.87739,-27.6084 35.52321,-54.2891 17.6459,-26.6808 41.68614,-63.0641 53.42274,-80.8519 l 21.3396,-32.3414 15.3326,-8.8575 c 8.4329,-4.8716 42.0815,-24.0493 74.7748,-42.6169 32.6933,-18.5677 67.9591,-38.6126 78.3686,-44.5442 10.4095,-5.9317 19.3938,-10.4959 19.9652,-10.1427 3.092,1.9108 6.0828,18.5403 6.0272,33.5119 -0.07,18.6327 -2.4697,28.9314 -10.1923,43.7277 -17.2383,33.0285 -46.1463,57.3807 -109.1685,91.9641 l -12.9501,7.1065 -8.6137,30.0627 c -4.7375,16.5345 -11.9232,41.7462 -15.9681,56.0261 -4.0451,14.2798 -7.9379,27.8137 -8.6509,30.0754 -0.713,2.2616 -0.8265,5.3825 -0.2521,6.9352 0.5744,1.5527 14.4784,13.9508 30.8979,27.5513 49.8789,41.3157 67.3624,55.9505 85.0302,71.1756 9.3032,8.017 18.2712,15.4987 19.929,16.6261 3.6909,2.5102 27.9857,22.4803 75.8266,62.3288 58.9236,49.0797 85.0981,78.2993 110.0879,122.8954 28.3529,50.598 41.6561,95.9807 47.1157,160.7312 2.2712,26.9364 -1.4067,64.5679 -9.7599,99.8619 l -4.1236,17.4228 -17.9929,-0.2298 c -9.8961,-0.1264 -20.4526,-0.445 -23.4589,-0.7082 z m 63.5418,-2.8839 c 0,-0.5989 1.2697,-6.9018 2.8216,-14.0065 7.7083,-35.2906 10.958,-78.2612 8.2106,-108.572 -5.2457,-57.8763 -16.3565,-97.5475 -41.201,-147.1092 -28.6386,-57.1303 -59.834,-92.1806 -139.9592,-157.2537 -25.5533,-20.7531 -50.9629,-41.5492 -56.4656,-46.2136 -5.5029,-4.6644 -35.019,-29.3688 -65.5915,-54.8985 -30.5727,-25.5299 -55.7442,-47.1262 -55.937,-47.992 -0.3787,-1.7007 0.1759,-2.0878 29.73,-20.7558 10.8978,-6.8835 31.1525,-19.7542 45.0104,-28.6014 30.0087,-19.1581 90.3945,-55.6488 111.4527,-67.3501 l 15.0314,-8.3524 58.759,-14.4952 c 32.3175,-7.9724 59.9203,-14.6237 61.3396,-14.7807 2.0873,-0.2308 4.7107,4.2848 13.7274,23.6282 6.1309,13.1525 13.6769,29.1404 16.7689,35.5288 3.092,6.3883 9.2545,19.3016 13.6942,28.6963 10.088,21.3462 21.6221,41.4724 38.3731,66.958 19.5616,29.7618 28.8526,40.4679 44.7273,51.5398 11.2657,7.8574 31.7416,11.0382 42.3966,6.5863 21.4574,-8.9655 41.9912,-43.9402 53.013,-90.2958 6.5144,-27.3988 7.8139,-40.0834 9.0939,-88.7647 1.3409,-50.997 2.1665,-60.4331 7.4123,-84.7224 4.4051,-20.3971 7.9424,-31.5961 13.6416,-43.1889 5.1627,-10.5019 17.1575,-26.8102 25.6242,-34.8394 7.1601,-6.79 24.5423,-18.7583 31.3963,-21.6176 5.0737,-2.1165 40.2437,-11.7107 42.9577,-11.7186 1.5292,0 2.3768,61.2084 4.1531,299.9401 0.8625,115.9193 0.2868,136.4222 -4.9881,177.6437 -23.9415,149.4952 -66.2188,300.4179 -206.9912,380.5347 -32.5475,15.8406 -59.227,24.8367 -95.1426,32.0813 -18.1885,3.6688 -23.0587,4.1739 -23.0587,2.3913 z M 1110.509,1323.8539 c 0.415,-1.4433 5.4456,-19.5346 11.179,-40.2028 5.7334,-20.6681 10.6382,-38.2483 10.8994,-39.0671 0.4644,-1.455 30.7873,-18.8376 31.4763,-18.0438 0.5539,0.6383 15.7138,54.1662 15.7138,55.484 0,0.9905 -46.8718,30.9435 -64.7327,41.3667 -4.9687,2.8995 -5.2445,2.9277 -4.5358,0.463 z m 89.3301,-54.8925 c -0.8651,-1.4853 -15.9622,-54.6721 -15.9622,-56.2344 0,-0.7231 7.7938,-7.3102 17.3196,-14.638 22.8872,-17.6063 33.9051,-28.1815 44.3778,-42.5945 9.0245,-12.42 18.9254,-30.6109 18.9254,-34.7714 0,-1.3295 0.4612,-2.4064 1.0249,-2.3933 1.0842,0.026 31.0549,94.1131 30.2131,94.8487 -0.2706,0.2363 -4.7964,2.725 -10.0573,5.5303 -10.8545,5.7878 -19.0007,10.7109 -57.0029,34.4492 -14.8172,9.2555 -27.233,16.8283 -27.5908,16.8283 -0.3579,0 -0.9192,-0.4612 -1.2476,-1.0249 z m 88.6605,-144.8479 c -14.2016,-44.9063 -26.0643,-82.3443 -26.3617,-83.1956 -0.5108,-1.4628 15.083,-12.9869 42.6734,-31.5362 13.8399,-9.3048 42.8062,-34.16238 53.5815,-45.98123 l 7.1207,-7.81053 2.0743,7.22593 c 12.0521,41.98653 59.3511,214.87783 58.907,215.32193 -0.5376,0.5375 -109.82,27.6234 -111.4514,27.6234 -0.3974,0 -12.3421,-36.7415 -26.5438,-81.6477 z m -286.3372,69.691 c 0.015,-2.8184 -0.9998,-17.1928 -2.25724,-31.9431 -2.1062,-24.7113 -2.1139,-27.7545 -0.099,-38.7283 1.20284,-6.5502 4.06634,-15.9257 6.36334,-20.8343 7.945,-16.9781 5.8844,-14.8528 91.3111,-94.1828 18.7878,-17.44697 27.9256,-24.89147 36.8952,-30.05837 10.3956,-5.9882 56.6711,-33.3928 167.0192,-98.90965 32.4374,-19.25903 67.7338,-39.60595 68.7056,-39.60595 0.3439,0 1.7558,3.84325 3.1378,8.54056 3.4265,11.64748 3.4465,37.77987 0.038,50.2185 -7.9624,29.06008 -27.3838,55.25005 -60.4993,81.58414 -38.0385,30.24907 -68.6617,48.95767 -216.3559,132.17777 -33.7102,18.9944 -54.0826,31.2903 -56.7093,34.2272 -2.2547,2.5209 -11.1711,15.3439 -19.8141,28.4955 -8.6431,13.1516 -16.1759,23.964 -16.7395,24.0275 -0.5637,0.064 -1.012,-2.1903 -0.9962,-5.0087 z m 128.4214,-237.73965 c 0,-4.45036 19.1109,-56.90035 25.2792,-69.37893 13.5303,-27.37188 21.9151,-35.31838 55.3436,-52.45026 21.1512,-10.83976 90.5364,-41.16865 155.0967,-67.79402 18.7892,-7.74888 62.5862,-26.38424 97.3267,-41.4119 l 63.1644,-27.32301 0.911,4.85617 c 1.5493,8.25837 -0.5551,29.12138 -4.2081,41.71883 -10.0926,34.80508 -34.8409,65.18045 -74.4296,91.35296 -14.5388,9.61168 -47.5059,27.13767 -51.0472,27.13767 -1.3333,0 -2.2186,-2.20903 -2.7778,-6.93059 -1.0811,-9.12852 -6.9411,-27.88054 -10.8585,-34.74735 -2.2699,-3.97904 -4.144,-5.58483 -6.8893,-5.90295 -4.6534,-0.53921 -20.8498,7.97259 -64.278,33.78038 -17.3998,10.34009 -47.6239,28.23208 -67.1648,39.75998 -19.5407,11.5279 -44.445,26.2889 -55.3428,32.80222 -10.8977,6.51331 -27.5006,16.35767 -36.8952,21.87633 -9.3946,5.51868 -18.4646,10.91823 -20.1557,11.99901 -1.691,1.0808 -3.0746,1.37574 -3.0746,0.65546 z m 109.3191,-158.78919 c 0,-0.86024 15.3716,-58.26736 34.1591,-127.57137 18.7874,-69.30401 36.0593,-133.07888 38.382,-141.72193 2.3226,-8.64305 4.6301,-16.12542 5.1276,-16.6275 1.9751,-1.99329 18.3398,7.20629 26.2637,14.76448 18.0631,17.22931 27.2638,33.07427 31.2338,53.78963 0.9362,4.8852 2.2678,11.83332 2.959,15.44027 3.2091,16.74486 1.725,30.43074 -10.2003,94.07404 -6.287,33.55215 -11.8224,61.6374 -12.3009,62.41167 -0.4785,0.77426 -25.921,11.3547 -56.5388,23.51207 -30.6179,12.15738 -56.4375,22.41671 -57.377,22.79853 -0.9395,0.3818 -1.7082,-0.009 -1.7082,-0.86989 z"
       id="path2"
       sodipodi:nodetypes="ssssssssssssssssssssssssssssscssscsssscsscssssssssssscssssssssssssscsssssssssssssscssssssssssssssssscssssssssscsssscsssssssscsssssccssssscssssssssssssssssssscsssss" />
  </g>
</svg>
